<?xml version="1.0" encoding="UTF-8"?>
<svg id="Layer_1" data-name="Layer 1" xmlns="http://www.w3.org/2000/svg" viewBox="0 0 296.01 384.11">
  <defs>
    <style>
      .cls-1 {
        fill: #010101;
        stroke-width: .5px;
      }

      .cls-1, .cls-2 {
        stroke: #010101;
        stroke-miterlimit: 10;
      }

      .cls-2 {
        fill: none;
      }
    </style>
  </defs>
  <path class="cls-1" d="M1.54,116.69c0-3.05,1.02-5.75,3.04-8.08,2.02-2.34,4.29-3.92,6.81-4.74L277.37,1.35c4.53-1.36,8.49-.93,11.87,1.3,3.38,2.22,5.07,5.69,5.05,10.39,0,2.77-.58,5.19-1.72,7.25-1.13,2.08-3.47,3.66-7,4.75L35.47,121.83l.04-9.96,241.82,77.46c2.01.56,3.71,2.01,5.09,4.37,1.36,2.36,2.06,4.79,2.05,7.28,0,2.76-.73,5.24-2.1,7.45-1.39,2.2-3.23,3.72-5.49,4.54l-242.03,75.23.04-9.96,252.75,81.25c5.01,1.4,7.52,5.42,7.49,12.07-.02,4.69-1.66,8.08-4.94,10.14-3.27,2.07-7.3,2.39-12.07.97L10.66,295.98c-3.27-1.13-5.71-2.87-7.34-5.23-1.63-2.36-2.43-4.92-2.42-7.69.02-3.32.97-6.08,2.87-8.28,1.88-2.21,4.21-3.71,6.99-4.52l243.16-74.4-.04,9.97L11.3,130.01c-3.01-1.13-5.4-2.87-7.15-5.23-1.75-2.36-2.62-5.06-2.61-8.09Z"/>
  <path class="cls-2" d="M291.95,280.89c-.06,3.05-1.12,5.72-3.17,8.01-2.06,2.29-4.37,3.82-6.9,4.59L17.23,382.93c-4.56,1.28-8.52.75-11.86-1.54-3.34-2.3-4.96-5.8-4.87-10.5.06-2.77.67-5.17,1.85-7.21,1.17-2.05,3.54-3.58,7.08-4.59l240.56-76.82h0L17.51,202.41c-2-.6-3.68-2.1-5-4.48-1.33-2.39-1.97-4.83-1.92-7.32.06-2.76.81-5.23,2.23-7.41,1.43-2.18,3.29-3.65,5.57-4.42l235.3-62.46h0L10.85,24.45c-5-1.51-7.43-5.58-7.28-12.22.1-4.69,1.8-8.05,5.12-10.04C11.99.21,16.03-.03,20.78,1.48l265.21,99.97c3.24,1.19,5.66,2.98,7.23,5.37,1.59,2.39,2.34,4.97,2.29,7.74-.07,3.32-1.07,6.05-3,8.21-1.94,2.18-4.29,3.63-7.08,4.39L59.66,191.36h0l222.78,76c3,1.18,5.35,2.97,7.05,5.37,1.71,2.39,2.53,5.12,2.46,8.15Z"/>
</svg>